<svg>
    <defs>
        <symbol id="search" xmlns="http://www.w3.org/2000/svg" viewBox="0 0 512 512">
                  <path fill="currentColor" d="M508.5 481.6l-129-129c-2.3-2.3-5.3-3.5-8.5-3.5h-10.3C395 312 416 262.5 416 208 416 93.1 322.9 0 208 0S0 93.1 0 208s93.1 208 208 208c54.5 0 104-21 141.1-55.2V371c0 3.2 1.3 6.2 3.5 8.5l129 129c4.7 4.7 12.3 4.7 17 0l9.9-9.9c4.7-4.7 4.7-12.3 0-17zM208 384c-97.3 0-176-78.7-176-176S110.7 32 208 32s176 78.7 176 176-78.7 176-176 176z"></path>
        </symbol>
        <symbol id="facebook" xmlns="http://www.w3.org/2000/svg" viewBox="0 0 320 512" >
            <path fill="currentColor" d="M279.14 288l14.22-92.66h-88.91v-60.13c0-25.35 12.42-50.06 52.24-50.06h40.42V6.26S260.43 0 225.36 0c-73.22 0-121.08 44.38-121.08 124.72v70.62H22.89V288h81.39v224h100.17V288z"></path>
        </symbol>
        <symbol id="twitter" xmlns="http://www.w3.org/2000/svg" viewBox="0 0 512 512" >
            <path fill="currentColor" d="M459.37 151.716c.325 4.548.325 9.097.325 13.645 0 138.72-105.583 298.558-298.558 298.558-59.452 0-114.68-17.219-161.137-47.106 8.447.974 16.568 1.299 25.34 1.299 49.055 0 94.213-16.568 130.274-44.832-46.132-.975-84.792-31.188-98.112-72.772 6.498.974 12.995 1.624 19.818 1.624 9.421 0 18.843-1.3 27.614-3.573-48.081-9.747-84.143-51.98-84.143-102.985v-1.299c13.969 7.797 30.214 12.67 47.431 13.319-28.264-18.843-46.781-51.005-46.781-87.391 0-19.492 5.197-37.36 14.294-52.954 51.655 63.675 129.3 105.258 216.365 109.807-1.624-7.797-2.599-15.918-2.599-24.04 0-57.828 46.782-104.934 104.934-104.934 30.213 0 57.502 12.67 76.67 33.137 23.715-4.548 46.456-13.32 66.599-25.34-7.798 24.366-24.366 44.833-46.132 57.827 21.117-2.273 41.584-8.122 60.426-16.243-14.292 20.791-32.161 39.308-52.628 54.253z"></path>
        </symbol>
        <symbol id="instagram" xmlns="http://www.w3.org/2000/svg" viewBox="0 0 448 512">
            <path fill="currentColor" d="M224,202.66A53.34,53.34,0,1,0,277.36,256,53.38,53.38,0,0,0,224,202.66Zm124.71-41a54,54,0,0,0-30.41-30.41c-21-8.29-71-6.43-94.3-6.43s-73.25-1.93-94.31,6.43a54,54,0,0,0-30.41,30.41c-8.28,21-6.43,71.05-6.43,94.33S91,329.26,99.32,350.33a54,54,0,0,0,30.41,30.41c21,8.29,71,6.43,94.31,6.43s73.24,1.93,94.3-6.43a54,54,0,0,0,30.41-30.41c8.35-21,6.43-71.05,6.43-94.33S357.1,182.74,348.75,161.67ZM224,338a82,82,0,1,1,82-82A81.9,81.9,0,0,1,224,338Zm85.38-148.3a19.14,19.14,0,1,1,19.13-19.14A19.1,19.1,0,0,1,309.42,189.74ZM400,32H48A48,48,0,0,0,0,80V432a48,48,0,0,0,48,48H400a48,48,0,0,0,48-48V80A48,48,0,0,0,400,32ZM382.88,322c-1.29,25.63-7.14,48.34-25.85,67s-41.4,24.63-67,25.85c-26.41,1.49-105.59,1.49-132,0-25.63-1.29-48.26-7.15-67-25.85s-24.63-41.42-25.85-67c-1.49-26.42-1.49-105.61,0-132,1.29-25.63,7.07-48.34,25.85-67s41.47-24.56,67-25.78c26.41-1.49,105.59-1.49,132,0,25.63,1.29,48.33,7.15,67,25.85s24.63,41.42,25.85,67.05C384.37,216.44,384.37,295.56,382.88,322Z"></path>
        </symbol>
        <symbol id="menuBar" xmlns="http://www.w3.org/2000/svg" viewBox="0 0 448 512">
            <path fill="currentColor" d="M442 114H6a6 6 0 0 1-6-6V84a6 6 0 0 1 6-6h436a6 6 0 0 1 6 6v24a6 6 0 0 1-6 6zm0 160H6a6 6 0 0 1-6-6v-24a6 6 0 0 1 6-6h436a6 6 0 0 1 6 6v24a6 6 0 0 1-6 6zm0 160H6a6 6 0 0 1-6-6v-24a6 6 0 0 1 6-6h436a6 6 0 0 1 6 6v24a6 6 0 0 1-6 6z"></path>
        </symbol>
        <symbol id="cross" xmlns="http://www.w3.org/2000/svg" viewBox="0 0 320 512">
            <path fill="currentColor" d="M193.94 256L296.5 153.44l21.15-21.15c3.12-3.12 3.12-8.19 0-11.31l-22.63-22.63c-3.12-3.12-8.19-3.12-11.31 0L160 222.06 36.29 98.34c-3.12-3.12-8.19-3.12-11.31 0L2.34 120.97c-3.12 3.12-3.12 8.19 0 11.31L126.06 256 2.34 379.71c-3.12 3.12-3.12 8.19 0 11.31l22.63 22.63c3.12 3.12 8.19 3.12 11.31 0L160 289.94 262.56 392.5l21.15 21.15c3.12 3.12 8.19 3.12 11.31 0l22.63-22.63c3.12-3.12 3.12-8.19 0-11.31L193.94 256z"></path>
        </symbol>
        <symbol id="user" xmlns="http://www.w3.org/2000/svg" viewBox="0 0 448 512">
           <path fill="currentColor" d="M313.6 288c-28.7 0-42.5 16-89.6 16-47.1 0-60.8-16-89.6-16C60.2 288 0 348.2 0 422.4V464c0 26.5 21.5 48 48 48h352c26.5 0 48-21.5 48-48v-41.6c0-74.2-60.2-134.4-134.4-134.4zM416 464c0 8.8-7.2 16-16 16H48c-8.8 0-16-7.2-16-16v-41.6C32 365.9 77.9 320 134.4 320c19.6 0 39.1 16 89.6 16 50.4 0 70-16 89.6-16 56.5 0 102.4 45.9 102.4 102.4V464zM224 256c70.7 0 128-57.3 128-128S294.7 0 224 0 96 57.3 96 128s57.3 128 128 128zm0-224c52.9 0 96 43.1 96 96s-43.1 96-96 96-96-43.1-96-96 43.1-96 96-96z"></path>
        </symbol>
        <symbol id="angleRight" xmlns="http://www.w3.org/2000/svg" viewBox="0 0 192 512">
            <path fill="currentColor" d="M166.9 264.5l-117.8 116c-4.7 4.7-12.3 4.7-17 0l-7.1-7.1c-4.7-4.7-4.7-12.3 0-17L127.3 256 25.1 155.6c-4.7-4.7-4.7-12.3 0-17l7.1-7.1c4.7-4.7 12.3-4.7 17 0l117.8 116c4.6 4.7 4.6 12.3-.1 17z"></path>
        </symbol>
        <symbol id="angleLeft" xmlns="http://www.w3.org/2000/svg" viewBox="0 0 192 512" >
           <path fill="currentColor" d="M25.1 247.5l117.8-116c4.7-4.7 12.3-4.7 17 0l7.1 7.1c4.7 4.7 4.7 12.3 0 17L64.7 256l102.2 100.4c4.7 4.7 4.7 12.3 0 17l-7.1 7.1c-4.7 4.7-12.3 4.7-17 0L25 264.5c-4.6-4.7-4.6-12.3.1-17z"></path>
        </symbol>
        <symbol id="share" xmlns="http://www.w3.org/2000/svg" viewBox="0 0 576 512">
            <path fill="currentColor" d="M564.907 196.35L388.91 12.366C364.216-13.45 320 3.746 320 40.016v88.154C154.548 130.155 0 160.103 0 331.19c0 94.98 55.84 150.231 89.13 174.571 24.233 17.722 58.021-4.992 49.68-34.51C100.937 336.887 165.575 321.972 320 320.16V408c0 36.239 44.19 53.494 68.91 27.65l175.998-184c14.79-15.47 14.79-39.83-.001-55.3zm-23.127 33.18l-176 184c-4.933 5.16-13.78 1.73-13.78-5.53V288c-171.396 0-295.313 9.707-243.98 191.7C72 453.36 32 405.59 32 331.19 32 171.18 194.886 160 352 160V40c0-7.262 8.851-10.69 13.78-5.53l176 184a7.978 7.978 0 0 1 0 11.06z"></path>
        </symbol>
        <symbol id="dottedMenu" xmlns="http://www.w3.org/2000/svg" viewBox="0 0 128 512">
             <path fill="currentColor" d="M64 208c26.5 0 48 21.5 48 48s-21.5 48-48 48-48-21.5-48-48 21.5-48 48-48zM16 104c0 26.5 21.5 48 48 48s48-21.5 48-48-21.5-48-48-48-48 21.5-48 48zm0 304c0 26.5 21.5 48 48 48s48-21.5 48-48-21.5-48-48-48-48 21.5-48 48z"></path>
        </symbol>
        <symbol id="colored-heart" xmlns="http://www.w3.org/2000/svg" viewBox="0 0 512 512">
            <path fill="currentColor" d="M462.3 62.6C407.5 15.9 326 24.3 275.7 76.2L256 96.5l-19.7-20.3C186.1 24.3 104.5 15.9 49.7 62.6c-62.8 53.6-66.1 149.8-9.9 207.9l193.5 199.8c12.5 12.9 32.8 12.9 45.3 0l193.5-199.8c56.3-58.1 53-154.3-9.8-207.9z"></path>
        </symbol>
        <symbol id="download" xmlns="http://www.w3.org/2000/svg" viewBox="0 0 384 512">
            <path fill="currentColor" d="M348.5 264l-148 148.5c-4.7 4.7-12.3 4.7-17 0L35.5 264c-4.7-4.7-4.7-12.3 0-17l7.1-7.1c4.7-4.7 12.3-4.7 17 0l115.4 116V44c0-6.6 5.4-12 12-12h10c6.6 0 12 5.4 12 12v311.9L324.4 240c4.7-4.7 12.3-4.7 17 0l7.1 7.1c4.7 4.6 4.7 12.2 0 16.9zM384 468v-8c0-6.6-5.4-12-12-12H12c-6.6 0-12 5.4-12 12v8c0 6.6 5.4 12 12 12h360c6.6 0 12-5.4 12-12z"></path>
        </symbol>
        <symbol id="step-forward" xmlns="http://www.w3.org/2000/svg" viewBox="0 0 448 512">
            <path fill="currentColor" d="M372 31h-8c-6.6 0-12 5.4-12 12v190.3c-1.1-1.2-2.2-2.4-3.5-3.4l-232-191.4C95.9 21.3 64 35.6 64 63v384c0 27.4 31.9 41.8 52.5 24.6l232-192.6c1.3-1.1 2.4-2.2 3.5-3.4V467c0 6.6 5.4 12 12 12h8c6.6 0 12-5.4 12-12V43c0-6.6-5.4-12-12-12zm-40.5 223.4L96.2 446.8l-.1.1-.1.1V63l.1.1.2.1 235.2 191.2z"></path>
        </symbol>
        <symbol id="repeat" xmlns="http://www.w3.org/2000/svg" viewBox="0 0 512 512">
            <path fill="currentColor" d="M54.027 327.713C40.129 307.242 32 282.553 32 256c0-70.579 57.421-128 128-128h160v63.969c0 29.239 36.192 43.177 55.785 21.407l72-79.968c10.952-12.169 10.953-30.644 0-42.814l-72-79.974C356.226-11.114 320 2.738 320 32.026V96H160C71.775 96 0 167.775 0 256c0 33.913 10.612 65.391 28.683 91.299 4.427 6.348 13.606 6.936 18.785 1.185l5.488-6.096c3.667-4.073 4.149-10.14 1.071-14.675zM352 32l72 80-72 80V32zm131.317 132.701c-4.427-6.348-13.606-6.936-18.785-1.185l-5.488 6.096c-3.667 4.073-4.149 10.14-1.071 14.675C471.871 204.758 480 229.447 480 256c0 70.579-57.421 128-128 128H192v-63.969c0-29.239-36.192-43.177-55.785-21.407l-72 79.969c-10.952 12.169-10.953 30.644 0 42.814l72 79.974C155.774 523.113 192 509.264 192 479.974V416h160c88.225 0 160-71.775 160-160 0-33.913-10.612-65.391-28.683-91.299zM160 480l-72-80 72-80v160z"></path>
        </symbol>
        <symbol id="volume" xmlns="http://www.w3.org/2000/svg" viewBox="0 0 576 512">
            <path fill="currentColor" d="M215.03 71.05L126.06 160H24c-13.26 0-24 10.74-24 24v144c0 13.25 10.74 24 24 24h102.06l88.97 88.95c15.03 15.03 40.97 4.47 40.97-16.97V88.02c0-21.46-25.96-31.98-40.97-16.97zm233.32-51.08c-11.17-7.33-26.18-4.24-33.51 6.95-7.34 11.17-4.22 26.18 6.95 33.51 66.27 43.49 105.82 116.6 105.82 195.58 0 78.98-39.55 152.09-105.82 195.58-11.17 7.32-14.29 22.34-6.95 33.5 7.04 10.71 21.93 14.56 33.51 6.95C528.27 439.58 576 351.33 576 256S528.27 72.43 448.35 19.97zM480 256c0-63.53-32.06-121.94-85.77-156.24-11.19-7.14-26.03-3.82-33.12 7.46s-3.78 26.21 7.41 33.36C408.27 165.97 432 209.11 432 256s-23.73 90.03-63.48 115.42c-11.19 7.14-14.5 22.07-7.41 33.36 6.51 10.36 21.12 15.14 33.12 7.46C447.94 377.94 480 319.54 480 256zm-141.77-76.87c-11.58-6.33-26.19-2.16-32.61 9.45-6.39 11.61-2.16 26.2 9.45 32.61C327.98 228.28 336 241.63 336 256c0 14.38-8.02 27.72-20.92 34.81-11.61 6.41-15.84 21-9.45 32.61 6.43 11.66 21.05 15.8 32.61 9.45 28.23-15.55 45.77-45 45.77-76.88s-17.54-61.32-45.78-76.86z"></path> 
        </symbol>
        <symbol id="volume-mute" xmlns="http://www.w3.org/2000/svg" viewBox="0 0 640 512">
            <path fill="currentColor" d="M633.82 458.1l-69-53.33C592.42 360.8 608 309.68 608 256c0-95.33-47.73-183.58-127.65-236.03-11.17-7.33-26.18-4.24-33.51 6.95-7.34 11.17-4.22 26.18 6.95 33.51 66.27 43.49 105.82 116.6 105.82 195.58 0 42.78-11.96 83.59-33.22 119.06l-38.12-29.46C503.49 318.68 512 288.06 512 256c0-63.09-32.06-122.09-85.77-156.16-11.19-7.09-26.03-3.8-33.12 7.41-7.09 11.2-3.78 26.03 7.41 33.13C440.27 165.59 464 209.44 464 256c0 21.21-5.03 41.57-14.2 59.88l-39.56-30.58c3.38-9.35 5.76-19.07 5.76-29.3 0-31.88-17.53-61.33-45.77-76.88-11.58-6.33-26.19-2.16-32.61 9.45-6.39 11.61-2.16 26.2 9.45 32.61 11.76 6.46 19.12 18.18 20.4 31.06L288 190.82V88.02c0-21.46-25.96-31.98-40.97-16.97l-49.71 49.7L45.47 3.37C38.49-2.05 28.43-.8 23.01 6.18L3.37 31.45C-2.05 38.42-.8 48.47 6.18 53.9l588.36 454.73c6.98 5.43 17.03 4.17 22.46-2.81l19.64-25.27c5.41-6.97 4.16-17.02-2.82-22.45zM32 184v144c0 13.25 10.74 24 24 24h102.06l88.97 88.95c15.03 15.03 40.97 4.47 40.97-16.97V352.6L43.76 163.84C36.86 168.05 32 175.32 32 184z"></path>
        </symbol>
        <symbol id="outside-arrow" xmlns="http://www.w3.org/2000/svg" viewBox="0 0 448 512">
            <path fill="currentColor" d="M216.464 36.465l-7.071 7.07c-4.686 4.686-4.686 12.284 0 16.971L387.887 239H12c-6.627 0-12 5.373-12 12v10c0 6.627 5.373 12 12 12h375.887L209.393 451.494c-4.686 4.686-4.686 12.284 0 16.971l7.071 7.07c4.686 4.686 12.284 4.686 16.97 0l211.051-211.05c4.686-4.686 4.686-12.284 0-16.971L233.434 36.465c-4.686-4.687-12.284-4.687-16.97 0z"></path>
        </symbol>
        <symbol id="song-waves" xmlns="http://www.w3.org/2000/svg" viewBox="0 0 640 512">
             <path fill="currentColor" d="M328 0h-16a16 16 0 0 0-16 16v480a16 16 0 0 0 16 16h16a16 16 0 0 0 16-16V16a16 16 0 0 0-16-16zm-96 96h-16a16 16 0 0 0-16 16v288a16 16 0 0 0 16 16h16a16 16 0 0 0 16-16V112a16 16 0 0 0-16-16zm192 32h-16a16 16 0 0 0-16 16v224a16 16 0 0 0 16 16h16a16 16 0 0 0 16-16V144a16 16 0 0 0-16-16zm96-64h-16a16 16 0 0 0-16 16v352a16 16 0 0 0 16 16h16a16 16 0 0 0 16-16V80a16 16 0 0 0-16-16zM136 192h-16a16 16 0 0 0-16 16v96a16 16 0 0 0 16 16h16a16 16 0 0 0 16-16v-96a16 16 0 0 0-16-16zm-96 32H24a16 16 0 0 0-16 16v32a16 16 0 0 0 16 16h16a16 16 0 0 0 16-16v-32a16 16 0 0 0-16-16zm576 0h-16a16 16 0 0 0-16 16v32a16 16 0 0 0 16 16h16a16 16 0 0 0 16-16v-32a16 16 0 0 0-16-16z"></path>
        </symbol>
        <symbol id="user" xmlns="http://www.w3.org/2000/svg" viewBox="0 0 448 512">
            <g>
                <path fill="currentColor" d="M352 128A128 128 0 1 1 224 0a128 128 0 0 1 128 128z"></path>
                <path fill="currentColor" d="M313.6 288h-16.7a174.1 174.1 0 0 1-145.8 0h-16.7A134.43 134.43 0 0 0 0 422.4V464a48 48 0 0 0 48 48h352a48 48 0 0 0 48-48v-41.6A134.43 134.43 0 0 0 313.6 288z"></path>
            </g>
        </symbol>
        <symbol id="bag" xmlns="http://www.w3.org/2000/svg" viewBox="0 0 448 512">
            <path fill="currentColor" d="M352 128C352 57.421 294.579 0 224 0 153.42 0 96 57.421 96 128H0v304c0 44.183 35.817 80 80 80h288c44.183 0 80-35.817 80-80V128h-96zM224 32c52.935 0 96 43.065 96 96H128c0-52.935 43.065-96 96-96zm192 400c0 26.467-21.533 48-48 48H80c-26.467 0-48-21.533-48-48V160h64v48c0 8.837 7.164 16 16 16s16-7.163 16-16v-48h192v48c0 8.837 7.163 16 16 16s16-7.163 16-16v-48h64v272z"></path>
        </symbol>
        
        <symbol id="heart" xmlns="http://www.w3.org/2000/svg" viewBox="0 0 512 512" >
            <path fill="currentColor" d="M462.3 62.7c-54.5-46.4-136-38.7-186.6 13.5L256 96.6l-19.7-20.3C195.5 34.1 113.2 8.7 49.7 62.7c-62.8 53.6-66.1 149.8-9.9 207.8l193.5 199.8c6.2 6.4 14.4 9.7 22.6 9.7 8.2 0 16.4-3.2 22.6-9.7L472 270.5c56.4-58 53.1-154.2-9.7-207.8zm-13.1 185.6L256.4 448.1 62.8 248.3c-38.4-39.6-46.4-115.1 7.7-161.2 54.8-46.8 119.2-12.9 142.8 11.5l42.7 44.1 42.7-44.1c23.2-24 88.2-58 142.8-11.5 54 46 46.1 121.5 7.7 161.2z"></path>
        </symbol>
    </defs>
</svg>